<svg id="icons_web_withe" xmlns="http://www.w3.org/2000/svg" xmlns:xlink="http://www.w3.org/1999/xlink" width="708.081" height="190.879" viewBox="0 0 708.081 190.879">
  <defs>
    <clipPath id="clip-path">
      <rect id="Rectángulo_242" data-name="Rectángulo 242" width="708.081" height="190.879" fill="#fff"/>
    </clipPath>
  </defs>
  <text id="SU_AMIGO_DE_CONFIANZA_EN_EL_EXTERIOR" data-name="SU AMIGO DE CONFIANZA EN EL EXTERIOR" transform="translate(356.856 137.52)" fill="#fff" font-size="15.897" font-family="SegoeUI, Segoe UI"><tspan x="0" y="0">SU </tspan><tspan y="0" letter-spacing="-0.003em">A</tspan><tspan y="0">MIGO DE </tspan><tspan y="0" letter-spacing="-0.02em">C</tspan><tspan y="0">ONFIANZA EN EL E</tspan><tspan y="0" letter-spacing="0.008em">X</tspan><tspan y="0">TERIOR</tspan></text>
  <g id="Grupo_706" data-name="Grupo 706">
    <g id="Grupo_705" data-name="Grupo 705" clip-path="url(#clip-path)">
      <path id="Trazado_1295" data-name="Trazado 1295" d="M381.541,111.634q-22.416,0-22.416-10.727a12.352,12.352,0,0,1,.514-3.4l17.213-64.23q3.725-14.128,29.417-14.131H415.9q22.414,0,22.416,10.791a13.808,13.808,0,0,1-.45,3.34L420.656,97.5q-3.791,14.13-29.481,14.13Zm16.121-12.2L415.9,31.347H399.846L381.605,99.43Z" fill="#fff"/>
      <path id="Trazado_1296" data-name="Trazado 1296" d="M468.507,86.585h22.48L488.1,97.5q-3.79,14.13-29.481,14.13h-9.635q-22.416,0-22.415-10.726a12.425,12.425,0,0,1,.513-3.4l17.214-64.229q3.725-14.13,29.417-14.131h9.635q22.413,0,22.414,10.791a13.867,13.867,0,0,1-.449,3.34l-2.954,10.918h-22.48l3.469-12.845H467.287L449.046,99.431H465.1Z" fill="#fff"/>
      <path id="Trazado_1297" data-name="Trazado 1297" d="M554,19.272l22.48-.129-9.763,36.611q-1.992,7.26-9.634,9.635,4.881,1.8,4.881,6.487a12.678,12.678,0,0,1-.449,3.147l-12.4,46.245q-19.848,0-19.847-8.543a9.8,9.8,0,0,1,.321-2.376l10.855-40.465H524.386l-11.175,41.75H490.73l24.729-92.491h22.48l-11.176,41.75h16.058Z" fill="#fff"/>
      <path id="Trazado_1298" data-name="Trazado 1298" d="M592.662,66.674l-8.735,32.757h16.058l3.4-12.846h22.48l-6.679,25.049H583.863q-22.416,0-22.416-10.726a12.353,12.353,0,0,1,.514-3.4l17.213-64.229q3.724-14.13,29.417-14.131h35.326l-6.68,25.049h-22.48l3.469-12.845H602.168L595.1,57.682h19.268l-2.44,8.992Z" fill="#fff"/>
      <path id="Trazado_1299" data-name="Trazado 1299" d="M685.665,19.143q22.416,0,22.416,10.791a13.854,13.854,0,0,1-.449,3.34l-6.038,22.48q-1.992,7.26-9.634,9.635,4.879,1.8,4.881,6.487a12.637,12.637,0,0,1-.45,3.147l-12.4,46.245q-19.847,0-19.846-8.543a9.8,9.8,0,0,1,.321-2.376l10.854-40.464H659.267l-11.176,41.749h-22.48l24.728-92.491Zm-16.057,12.2-7.964,29.546H677.7l7.964-29.546Z" fill="#fff"/>
      <path id="Trazado_1300" data-name="Trazado 1300" d="M339.395,154.335h29.2l34.927,22.6H339.278q-40.77,0-40.769-19.861a23.322,23.322,0,0,1,.935-6.3L337.526,5.677h40.885Z" fill="#fff"/>
      <path id="Trazado_1301" data-name="Trazado 1301" d="M412.869,139.085l-20.714-.066,13.124,14.005-88.806-.281L304.386,165.5c5.7.739,11.681,1.956,16.469,4.23,2.21,1.049,4,2.838,6.008,4.2a64.706,64.706,0,0,0,14.069,1.871,4.424,4.424,0,0,1,2.8.9l61.479.194-13.2,13.921,20.714.066,24.463-25.82Z" fill="#fff"/>
      <path id="Trazado_1302" data-name="Trazado 1302" d="M107.083,55.956H48.81a4.446,4.446,0,0,0,0,8.829h58.273a4.446,4.446,0,0,0,0-8.829" fill="#fff"/>
      <path id="Trazado_1303" data-name="Trazado 1303" d="M67.848,75.964H4.443a4.415,4.415,0,1,0,0,8.829h63.4a4.415,4.415,0,1,0,0-8.829" fill="#fff"/>
      <path id="Trazado_1304" data-name="Trazado 1304" d="M109.211,94.312H35.373c-2.859,0-5.175,1.975-5.175,4.414s2.316,4.415,5.175,4.415h73.838c2.857,0,5.174-1.977,5.174-4.415s-2.317-4.414-5.174-4.414" fill="#fff"/>
      <path id="Trazado_1305" data-name="Trazado 1305" d="M67.848,35.74H4.443a4.415,4.415,0,1,0,0,8.829h63.4a4.415,4.415,0,1,0,0-8.829" fill="#fff"/>
      <path id="Trazado_1306" data-name="Trazado 1306" d="M121.305,95.941,79.773,0h24.665l27.93,68.918L160.842,0h22.852l-51.87,126.955h-23.4Z" fill="#fff"/>
      <path id="Trazado_1307" data-name="Trazado 1307" d="M181.69,128.434q-25.824,0-25.823-12.356a14.253,14.253,0,0,1,.592-3.922l19.83-73.99q4.288-16.276,33.887-16.278h11.1q25.822,0,25.823,12.431a15.944,15.944,0,0,1-.518,3.847l-19.829,73.99q-4.368,16.278-33.962,16.278Zm18.571-14.058,21.013-78.43h-18.5l-21.013,78.43Z" fill="#fff"/>
      <path id="Trazado_1308" data-name="Trazado 1308" d="M275.829,114.376l24.713-92.488h25.9l-24.12,90.268q-4.368,16.278-33.962,16.278h-11.1q-25.824,0-25.823-12.356a14.253,14.253,0,0,1,.592-3.922l24.121-90.268h25.9l-24.712,92.488Z" fill="#fff"/>
    </g>
  </g>
</svg>
